<svg id="Group_618" data-name="Group 618" xmlns="http://www.w3.org/2000/svg" width="50" height="50" viewBox="0 0 50 50">
  <circle id="Ellipse_3" data-name="Ellipse 3" cx="25" cy="25" r="25" fill="#1b6730" opacity="0.1"/>
  <g id="station-essence" transform="translate(16.373 12.594)">
    <path id="Path_10" data-name="Path 10" d="M21.405,9.822v-2.9l-2.085-2.94V1.72A1.721,1.721,0,0,0,17.6,0H10.544A1.72,1.72,0,0,0,8.825,1.72V23.855H6.449v.764H22.475v-.764H19.32V15.086h.757a.443.443,0,0,1,.5.525v3.716a1.741,1.741,0,0,0,.44,1.206,1.605,1.605,0,0,0,1.21.47,1.708,1.708,0,0,0,1.854-1.786v-7.16ZM17.582,6.147a1.061,1.061,0,0,1-1.061,1.061h-4.9a1.061,1.061,0,0,1-1.061-1.061V3.13a1.061,1.061,0,0,1,1.061-1.061h4.9A1.061,1.061,0,0,1,17.582,3.13ZM23,19.218c0,.623-.412.7-.77.7a.575.575,0,0,1-.423-.131.665.665,0,0,1-.145-.436V15.612a1.57,1.57,0,0,0-.466-1.194A1.658,1.658,0,0,0,20.051,14H19.32V5.859l1,1.409v3.061L23,12.564v6.654Z" transform="translate(-6.449 0)" fill="#0b6d31"/>
  </g>
</svg>
