<svg xmlns="http://www.w3.org/2000/svg" width="107.85" height="107.85" viewBox="0 0 107.85 107.85">
  <g id="Group_117" data-name="Group 117" transform="translate(0)">
    <path id="Path_11" data-name="Path 11" d="M53.925,0A53.925,53.925,0,1,1,0,53.925,53.925,53.925,0,0,1,53.925,0Z" transform="translate(0)" fill="#eef8ee"/>
    <g id="station-essence" transform="translate(37.401 28.981)">
      <path id="Path_10" data-name="Path 10" d="M34.483,18.41V12.974l-3.908-5.51V3.223A3.226,3.226,0,0,0,27.351,0H14.125A3.223,3.223,0,0,0,10.9,3.223V44.714H6.449v1.433h30.04V44.714H30.574V28.278h1.42a.83.83,0,0,1,.933.984v6.966a3.264,3.264,0,0,0,.826,2.261,3.009,3.009,0,0,0,2.268.881A3.2,3.2,0,0,0,39.5,36.02V22.6Zm-7.167-6.887a1.989,1.989,0,0,1-1.989,1.989h-9.18a1.988,1.988,0,0,1-1.988-1.989V5.867a1.989,1.989,0,0,1,1.988-1.989h9.18a1.989,1.989,0,0,1,1.989,1.989Zm10.149,24.5c0,1.167-.772,1.317-1.444,1.317a1.079,1.079,0,0,1-.792-.246,1.246,1.246,0,0,1-.271-.818V29.263a2.944,2.944,0,0,0-.874-2.238,3.108,3.108,0,0,0-2.14-.777h-1.37V10.982l1.877,2.641V19.36l5.015,4.189V36.022Z" transform="translate(-6.449 0)" fill="#5cb85c"/>
    </g>
  </g>
</svg>
