<svg xmlns="http://www.w3.org/2000/svg" width="107.85" height="107.85" viewBox="0 0 107.85 107.85">
  <g id="Group_121" data-name="Group 121" transform="translate(0)">
    <path id="Path_122" data-name="Path 122" d="M53.925,0A53.925,53.925,0,1,1,0,53.925,53.925,53.925,0,0,1,53.925,0Z" transform="translate(0)" fill="rgba(229,45,39,0.1)"/>
    <path id="manual-transmission" d="M40.245,16.935v.175a6.992,6.992,0,0,1-6.984,6.984H24.27v3.579a1.746,1.746,0,0,1-3.492,0V24.094H7.859v3.579a1.746,1.746,0,0,1-3.492,0V16.935a1.746,1.746,0,1,1,3.492,0V20.6h12.92V16.935a1.746,1.746,0,1,1,3.492,0V20.6h8.991a3.5,3.5,0,0,0,3.492-3.492v-.175a1.746,1.746,0,0,1,3.492,0ZM0,6.111a6.111,6.111,0,1,1,6.111,6.111A6.118,6.118,0,0,1,0,6.111Zm3.492,0A2.619,2.619,0,1,0,6.113,3.492,2.622,2.622,0,0,0,3.494,6.111Zm12.832,0a6.111,6.111,0,1,1,6.111,6.111A6.118,6.118,0,0,1,16.326,6.111Zm3.492,0a2.619,2.619,0,1,0,2.619-2.619A2.622,2.622,0,0,0,19.818,6.111ZM12.223,38.585a6.111,6.111,0,1,1-6.111-6.111A6.118,6.118,0,0,1,12.223,38.585Zm-3.492,0A2.619,2.619,0,1,0,6.113,41.2,2.622,2.622,0,0,0,8.732,38.585Zm19.816,0a6.111,6.111,0,1,1-6.111-6.111A6.118,6.118,0,0,1,28.548,38.585Zm-3.492,0A2.619,2.619,0,1,0,22.437,41.2,2.622,2.622,0,0,0,25.056,38.585ZM44.7,6.111A6.111,6.111,0,1,1,38.587,0,6.118,6.118,0,0,1,44.7,6.111Zm-3.492,0A2.619,2.619,0,1,0,38.587,8.73,2.622,2.622,0,0,0,41.205,6.111Zm1.16,32.812a5.579,5.579,0,0,0-3.24-10.116A5.434,5.434,0,0,0,33.7,34.236v8.714a1.746,1.746,0,1,0,3.492,0V39.981h1.786l1.994,3.782a1.746,1.746,0,1,0,3.089-1.629ZM37.19,34.236A1.938,1.938,0,0,1,39.126,32.3a2.082,2.082,0,0,1,2.079,2.079,2.113,2.113,0,0,1-2.111,2.111h-1.9Z" transform="translate(30.959 31.577)" fill="#e52d27"/>
  </g>
</svg>
